<svg xmlns="http://www.w3.org/2000/svg" xmlns:xlink="http://www.w3.org/1999/xlink" preserveAspectRatio="xMidYMid meet" version="1.0" viewBox="16.2 -3.7 481.1 499.8" zoomAndPan="magnify" style="fill: rgb(255, 255, 255);" original_string_length="1468"><g><g data-name="Outline" id="__id120_sne16jlarp"><path d="M24.32,252h88.16a8,8,0,0,0,8-7.35,134.82,134.82,0,0,1,29.32-73.49,8,8,0,0,0-.59-10.66L86.7,98c-3-3.31-8.81-3-11.68.4A240.11,240.11,0,0,0,16.33,243.59,8.05,8.05,0,0,0,24.32,252ZM81.55,115.5l51.37,51.37A150.5,150.5,0,0,0,105.29,236H32.89A220.62,220.62,0,0,1,81.55,115.5Z" style="fill: inherit;"/><path d="M413.59,75A239.9,239.9,0,0,0,98.41,75,8.06,8.06,0,0,0,98,86.7l62.48,62.48a8,8,0,0,0,10.65.59,135.8,135.8,0,0,1,169.7,0,8,8,0,0,0,10.65-.59L414,86.7A8.06,8.06,0,0,0,413.59,75Zm-68.46,57.9a151.81,151.81,0,0,0-178.26,0L115.5,81.55a224,224,0,0,1,281,0Z" style="fill: inherit;"/><path d="M431.23,95.68A7.77,7.77,0,0,0,425.3,98L362.82,160.5a8,8,0,0,0-.59,10.65,136,136,0,0,1-75.75,217.42,8,8,0,1,0,3.57,15.59,152,152,0,0,0,89-237.28l51.37-51.38c32,39.6,49.05,89.16,49.55,140.5,1.18,120.47-103.44,224.12-224,224-110.2-.11-210.35-86.72-222.16-196h72.79A152.49,152.49,0,0,0,222.12,404.2a8,8,0,1,0,3.54-15.59,136.37,136.37,0,0,1-104.3-113.7,8,8,0,0,0-7.92-6.91H25a8.09,8.09,0,0,0-8,8.67C27.57,397.85,134.45,496.14,256,496c129.11-.15,241.34-111.18,240-240-.61-58.09-21-114.06-59-157.59A8,8,0,0,0,431.23,95.68Z" style="fill: inherit;"/><circle cx="256" cy="400" r="8" style="fill: inherit;"/></g></g></svg>