<svg xmlns="http://www.w3.org/2000/svg" xmlns:xlink="http://www.w3.org/1999/xlink" preserveAspectRatio="xMidYMid meet" version="1.0" viewBox="-1.6 0.1 573.6 675.9" zoomAndPan="magnify" style="fill: rgb(0, 0, 0);" original_string_length="969"><g id="__id118_sne16jlarp" style="fill: rgb(255, 255, 255);"><path d="M559,182H377c-7.2,0-13,5.8-13,13v117H195c-7.2,0-13,5.8-13,13v117H13c-7.2,0-13,5.8-13,13v208 c0,7.2,5.8,13,13,13h546c7.2,0,13-5.8,13-13V195C572,187.8,566.2,182,559,182z M182,650H26V468h156V650z M364,650H208V455V338h156 V650z M546,650H390V208h156V650z" style="fill: inherit;"/><path d="M13,416c2.7,0,5.3-0.9,7.5-2.5L530.4,49.4l-9.5,23.8c-2.7,6.7,0.6,14.2,7.3,16.9c0,0,0,0,0,0 c1.5,0.6,3.2,0.9,4.8,0.9c5.3,0,10.1-3.2,12.1-8.2l26-65c0-0.8,0-1.6,0-2.3c0.2-1.4,0.2-2.9,0-4.3c0-0.3,0-0.6,0-0.9 c-0.3-1.4-0.9-2.8-1.7-4c-0.9-1.2-1.9-2.2-3.1-3c-1.4-1.4-3-2.5-4.8-3.2H494c-7.2,0-13,5.8-13,13s5.8,13,13,13h24.4L5.5,392.5 c-5.8,4.2-7.1,12.3-2.9,18.2C5,414,8.9,416,13,416z" style="fill: inherit;"/></g></svg>